<svg xmlns="http://www.w3.org/2000/svg" version="1.1" xmlns:xlink="http://www.w3.org/1999/xlink" width="1500" height="1500" viewBox="0 0 1500 1500"><rect width="1500" height="1500" x="0" y="0" id="background" stroke="transparent" fill="#ffffff"></rect><svg xml:space="preserve" width="1000" height="1000" data-version="2" data-id="lg_OmPhlPJdHWfRpkgm1a" viewBox="0 0 571 571" x="250" y="250"><rect width="100%" height="100%" fill="transparent"></rect><circle r="291.11" stroke="#000000" stroke-width="25" transform="translate(285.5 285.5)scale(.9223)"></circle><path fill="#000000" d="M110.47 297.86q-5.07 0-8.85-1.91-3.79-1.91-5.88-5.29-2.08-3.38-2.08-7.8v-27.08h7.43v26.46q0 2.59 1.15 4.62 1.16 2.04 3.26 3.19 2.1 1.16 4.97 1.16 2.86 0 4.97-1.16 2.1-1.15 3.25-3.19 1.16-2.03 1.16-4.62v-26.46h7.43v27.08q0 4.42-2.1 7.8t-5.88 5.29q-3.77 1.91-8.83 1.91"></path><rect width="33.62" height="42.08" x="-16.81" y="-21.04" fill="none" rx="0" ry="0" transform="translate(110.97 277.32)"></rect><path fill="#000000" d="M139.42 297.25v-41.47h7.43v35.2h18.31v6.27Z"></path><rect width="25.74" height="41.47" x="-12.87" y="-20.73" fill="none" rx="0" ry="0" transform="translate(152.79 277.01)"></rect><path fill="#000000" d="M168.31 262.04v-6.26h33.01v6.26h-12.77v35.21h-7.43v-35.21Z"></path><rect width="33.01" height="41.47" x="-16.5" y="-20.73" fill="none" rx="0" ry="0" transform="translate(185.31 277.01)"></rect><path fill="#000000" d="M211.63 297.25v-41.47h15.5q4.76 0 8.02 1.67 3.25 1.67 4.92 4.66t1.67 6.94q0 3.95-1.68 6.88-1.69 2.92-4.97 4.5-3.28 1.59-8.07 1.59h-11.08v-6.15h10.1q2.82 0 4.6-.79 1.78-.8 2.64-2.33.86-1.53.86-3.7 0-2.23-.86-3.8-.86-1.57-2.66-2.41-1.79-.83-4.63-.83h-6.93v35.24Zm23.32 0-10.07-18.82H233l10.27 18.82Z"></path><rect width="31.64" height="41.47" x="-15.82" y="-20.73" fill="none" rx="0" ry="0" transform="translate(227.95 277.01)"></rect><path fill="#000000" d="m249.85 297.25 14.47-41.47h9.43l14.81 41.47h-8.15l-7.38-21.55q-1.08-3.34-2.25-7.55-1.17-4.22-2.59-9.59h1.56q-1.4 5.43-2.52 9.67-1.13 4.24-2.13 7.47l-7.13 21.55Zm8.43-10.27v-5.99h21.85v5.99Z"></path><rect width="38.71" height="41.47" x="-19.36" y="-20.73" fill="none" rx="0" ry="0" transform="translate(269.7 277.01)"></rect><path fill="#000000" d="M316.1 297.25v-41.47h7.43v35.2h18.31v6.27Z"></path><rect width="25.74" height="41.47" x="-12.87" y="-20.73" fill="none" rx="0" ry="0" transform="translate(329.47 277.01)"></rect><path fill="#000000" d="M368.29 297.8q-5.46 0-9.77-2.53t-6.8-7.29q-2.5-4.76-2.5-11.44 0-6.71 2.5-11.48 2.49-4.78 6.8-7.31 4.31-2.53 9.77-2.53 5.43 0 9.73 2.53 4.3 2.53 6.79 7.31 2.49 4.77 2.49 11.48 0 6.68-2.49 11.45t-6.79 7.29q-4.3 2.52-9.73 2.52m0-6.65q3.37 0 5.97-1.68 2.6-1.69 4.08-4.96 1.47-3.27 1.47-7.97 0-4.76-1.47-8.03-1.48-3.27-4.08-4.96-2.6-1.68-5.97-1.68-3.4 0-6.01 1.7-2.62 1.7-4.11 4.97-1.49 3.27-1.49 8 0 4.7 1.49 7.96 1.49 3.25 4.11 4.95 2.61 1.7 6.01 1.7"></path><rect width="38.08" height="42.58" x="-19.04" y="-21.29" fill="none" rx="0" ry="0" transform="translate(368.76 277.01)"></rect><path fill="#000000" d="M415.92 297.8q-5.46 0-9.77-2.53-4.32-2.53-6.81-7.29-2.49-4.76-2.49-11.44 0-6.71 2.49-11.48 2.49-4.78 6.81-7.31 4.31-2.53 9.77-2.53 5.42 0 9.72 2.53 4.3 2.53 6.79 7.31 2.5 4.77 2.5 11.48 0 6.68-2.5 11.45-2.49 4.77-6.79 7.29-4.3 2.52-9.72 2.52m0-6.65q3.36 0 5.97-1.68 2.6-1.69 4.07-4.96 1.48-3.27 1.48-7.97 0-4.76-1.48-8.03-1.47-3.27-4.07-4.96-2.61-1.68-5.97-1.68-3.4 0-6.02 1.7-2.61 1.7-4.1 4.97-1.49 3.27-1.49 8 0 4.7 1.49 7.96 1.49 3.25 4.1 4.95 2.62 1.7 6.02 1.7"></path><rect width="38.08" height="42.58" x="-19.04" y="-21.29" fill="none" rx="0" ry="0" transform="translate(416.39 277.01)"></rect><path fill="#000000" d="M451.16 287.03v-7.04q1.33-2.17 2.63-4.08 1.29-1.9 2.75-3.77 1.46-1.86 3.27-3.95l10.89-12.41h9.24l-17.59 19.84-.56-.2Zm-5.37 10.22v-41.47h7.43v12.3l-.14 9.99.14 3.64v15.54Zm25.66 0-13.2-19.52 4.68-5.59 17.28 25.11Z"></path><rect width="34.42" height="41.47" x="-17.21" y="-20.73" fill="none" rx="0" ry="0" transform="translate(463.5 277.01)"></rect><path fill="#000000" d="M198.77 364.23q-4.81 0-8.36-1.51-3.55-1.5-5.55-4.36-2.01-2.87-2.18-6.96H190q.2 2.17 1.37 3.62 1.17 1.44 3.09 2.15t4.26.71q2.45 0 4.32-.75 1.88-.75 2.94-2.1t1.06-3.13q0-1.62-.93-2.67-.94-1.06-2.62-1.8-1.68-.74-3.94-1.29l-4.7-1.23q-5.21-1.33-8.12-4.03-2.9-2.7-2.9-7.1 0-3.67 1.97-6.43 1.98-2.76 5.4-4.27 3.42-1.52 7.77-1.52 4.42 0 7.76 1.53t5.22 4.23q1.88 2.7 1.96 6.15h-7.21q-.27-2.67-2.38-4.13-2.1-1.46-5.46-1.46-2.34 0-4.03.71-1.68.71-2.58 1.93-.91 1.23-.91 2.81 0 1.73 1.07 2.84 1.07 1.12 2.7 1.78 1.63.67 3.3 1.09l3.87 1q2.31.56 4.48 1.48 2.17.92 3.91 2.32 1.74 1.41 2.77 3.41t1.03 4.7q0 3.65-1.87 6.42-1.86 2.77-5.37 4.31-3.5 1.55-8.46 1.55"></path><rect width="31.79" height="42.67" x="-15.89" y="-21.34" fill="none" rx="0" ry="0" transform="translate(199.07 343.4)"></rect><path fill="#000000" d="m221.74 363.59 14.47-41.47h9.44l14.8 41.47h-8.15l-7.38-21.54q-1.08-3.34-2.25-7.56t-2.59-9.59h1.56q-1.39 5.43-2.52 9.67-1.13 4.25-2.13 7.48l-7.12 21.54Zm8.43-10.27v-5.99h21.85v5.99Z"></path><rect width="38.71" height="41.47" x="-19.36" y="-20.73" fill="none" rx="0" ry="0" transform="translate(241.6 343.36)"></rect><path fill="#000000" d="M269.81 363.59v-41.47h7.43v35.21h18.32v6.26Z"></path><rect width="25.75" height="41.47" x="-12.88" y="-20.73" fill="none" rx="0" ry="0" transform="translate(283.19 343.36)"></rect><path fill="#000000" d="M322 364.14q-5.45 0-9.77-2.53-4.31-2.53-6.8-7.29t-2.49-11.44q0-6.71 2.49-11.48 2.49-4.77 6.8-7.31 4.32-2.53 9.77-2.53 5.43 0 9.73 2.53 4.3 2.54 6.79 7.31t2.49 11.48q0 6.68-2.49 11.45-2.49 4.78-6.79 7.3-4.3 2.51-9.73 2.51m0-6.65q3.37 0 5.97-1.68 2.6-1.69 4.08-4.96 1.47-3.27 1.47-7.97 0-4.76-1.47-8.03-1.48-3.27-4.08-4.95-2.6-1.69-5.97-1.69-3.39 0-6.01 1.7-2.62 1.7-4.1 4.97-1.49 3.27-1.49 8 0 4.7 1.49 7.96 1.48 3.26 4.1 4.95 2.62 1.7 6.01 1.7"></path><rect width="38.07" height="42.58" x="-19.04" y="-21.29" fill="none" rx="0" ry="0" transform="translate(322.48 343.35)"></rect><path fill="#000000" d="M351.87 363.59v-41.47h8.41l14.33 22.85q.89 1.42 1.89 3.21 1.01 1.8 2.09 4.01 1.09 2.21 2.14 4.91h-.83q-.2-2.34-.35-4.8-.15-2.46-.22-4.67-.07-2.22-.07-3.75v-21.76h7.54v41.47h-8.43l-12.94-20.57q-1.23-1.98-2.31-3.9-1.09-1.92-2.34-4.34-1.25-2.42-3.04-5.84h1.06q.17 3.03.31 5.74.14 2.72.23 4.86.1 2.14.1 3.45v20.6Z"></path><rect width="34.93" height="41.47" x="-17.46" y="-20.73" fill="none" rx="0" ry="0" transform="translate(369.83 343.36)"></rect><path fill="#000000" d="M208.65 409.93v-2.08l-1.88-3.01h.75l1.01 1.64q.17.28.31.53.13.25.27.64h-.26q.14-.39.27-.65.13-.25.29-.52l1.01-1.64h.75l-1.87 3.01v2.08Z"></path><rect width="4.4" height="5.09" x="-2.2" y="-2.54" fill="none" rx="0" ry="0" transform="translate(209.47 407.88)"></rect><path fill="#000000" d="M214.5 410q-.66 0-1.17-.31-.51-.32-.8-.91-.3-.58-.3-1.39 0-.81.3-1.4.29-.58.8-.9.51-.32 1.17-.32.65 0 1.16.32.51.32.8.9.29.59.29 1.4 0 .81-.29 1.39-.29.59-.8.91-.51.31-1.16.31m0-.6q.45 0 .82-.23.37-.23.58-.68.22-.45.22-1.1 0-.66-.22-1.11-.21-.45-.58-.68-.37-.23-.82-.23-.46 0-.83.24-.37.23-.59.68-.21.45-.21 1.1 0 .65.21 1.1.22.45.59.68.37.23.83.23"></path><rect width="4.52" height="5.23" x="-2.26" y="-2.62" fill="none" rx="0" ry="0" transform="translate(214.99 407.88)"></rect><path fill="#000000" d="M220.48 410.02q-.6 0-1.05-.24-.45-.24-.69-.65-.25-.41-.25-.93v-3.36h.65v3.31q0 .36.16.65.17.29.47.45.3.16.71.16.42 0 .72-.16t.46-.45q.16-.29.16-.65v-3.31h.65v3.36q0 .52-.25.93-.24.41-.69.65-.44.24-1.05.24"></path><rect width="3.98" height="5.18" x="-1.99" y="-2.59" fill="none" rx="0" ry="0" transform="translate(220.98 407.93)"></rect><path fill="#000000" d="M224.41 409.93v-5.09h1.74q.6 0 .98.2.38.21.57.56.19.36.19.81 0 .46-.19.81-.19.34-.57.54-.38.2-.98.2h-1.38v-.58h1.35q.41 0 .65-.12.25-.12.36-.33.11-.22.11-.52 0-.3-.11-.53-.11-.22-.36-.34-.25-.13-.65-.13h-1.06v4.52Zm2.92 0-1.23-2.29h.73l1.26 2.29Z"></path><rect width="3.68" height="5.09" x="-1.84" y="-2.54" fill="none" rx="0" ry="0" transform="translate(226.75 407.88)"></rect><path fill="#000000" d="M233.93 410.02q-.55 0-.96-.18-.4-.17-.63-.49-.23-.32-.26-.75h.66q.03.29.2.47.17.19.43.28.26.09.56.09.34 0 .62-.11.27-.11.43-.32.16-.2.16-.47 0-.25-.14-.4-.13-.16-.36-.26-.23-.1-.51-.17l-.61-.18q-.62-.17-.96-.5-.34-.32-.34-.83 0-.43.23-.75.24-.32.63-.5.4-.18.89-.18.5 0 .89.18t.61.48q.22.31.24.7h-.64q-.04-.38-.35-.58-.32-.2-.77-.2-.33 0-.58.1-.24.11-.38.3-.14.18-.14.42 0 .27.17.43.16.16.39.26.23.09.41.14l.51.14q.21.05.46.15.24.09.47.25.22.16.37.41.15.24.15.6 0 .41-.22.75-.22.33-.63.53-.42.19-1 .19"></path><rect width="3.7" height="5.25" x="-1.85" y="-2.63" fill="none" rx="0" ry="0" transform="translate(234.43 407.9)"></rect><path fill="#000000" d="M237.18 405.41v-.57h3.85v.57h-1.6v4.52h-.65v-4.52Z"></path><rect width="3.85" height="5.09" x="-1.93" y="-2.54" fill="none" rx="0" ry="0" transform="translate(239.6 407.88)"></rect><path fill="#000000" d="M244.26 409.93v-2.08l-1.88-3.01h.76l1 1.64q.18.28.31.53t.27.64h-.26q.14-.39.27-.65.14-.25.3-.52l1-1.64h.75l-1.87 3.01v2.08Z"></path><rect width="4.4" height="5.09" x="-2.2" y="-2.54" fill="none" rx="0" ry="0" transform="translate(245.08 407.88)"></rect><path fill="#000000" d="M248.28 409.93v-5.09h.65v4.52h2.36v.57Z"></path><rect width="3.01" height="5.09" x="-1.5" y="-2.54" fill="none" rx="0" ry="0" transform="translate(250.28 407.88)"></rect><path fill="#000000" d="M252.94 409.93v-5.09h3.11v.57h-2.46v1.67h2.29v.57h-2.29v1.71h2.49v.57Z"></path><rect width="3.14" height="5.09" x="-1.57" y="-2.54" fill="none" rx="0" ry="0" transform="translate(255.01 407.88)"></rect><path fill="#000000" d="M262.12 409.93h-1.23v-.57h1.19q.63 0 1.03-.24.41-.24.61-.68.21-.44.21-1.06 0-.62-.2-1.05-.2-.44-.6-.68-.39-.24-.99-.24h-1.27v-.57h1.32q.74 0 1.27.3.53.31.81.88.28.57.28 1.36 0 .79-.28 1.37-.28.57-.83.88-.54.3-1.32.3m-.94-5.09v5.09h-.64v-5.09Z"></path><rect width="4.01" height="5.09" x="-2" y="-2.54" fill="none" rx="0" ry="0" transform="translate(263.05 407.88)"></rect><path fill="#000000" d="M266.29 409.93v-5.09h3.11v.57h-2.46v1.67h2.29v.57h-2.29v1.71h2.49v.57Z"></path><rect width="3.14" height="5.09" x="-1.57" y="-2.54" fill="none" rx="0" ry="0" transform="translate(268.36 407.88)"></rect><path fill="#000000" d="M273.27 410q-.65 0-1.16-.31-.52-.32-.81-.91-.29-.58-.29-1.39 0-.81.29-1.4.29-.58.81-.9.51-.32 1.16-.32.39 0 .73.11.34.12.62.33.27.22.45.53.19.31.25.7h-.65q-.05-.26-.18-.46t-.32-.33q-.19-.14-.42-.21-.23-.07-.48-.07-.46 0-.83.24-.37.23-.58.68-.22.45-.22 1.1 0 .65.22 1.1.22.45.59.68.36.23.82.23.25 0 .48-.07.23-.07.42-.21.19-.13.32-.33t.18-.46h.65q-.06.39-.24.7-.19.3-.46.52-.27.22-.62.34-.34.11-.73.11"></path><rect width="4.31" height="5.23" x="-2.15" y="-2.62" fill="none" rx="0" ry="0" transform="translate(273.67 407.88)"></rect><path fill="#000000" d="M277.68 404.84v5.09h-.65v-5.09Z"></path><rect width=".65" height="5.09" x="-.33" y="-2.54" fill="none" rx="0" ry="0" transform="translate(277.86 407.88)"></rect><path fill="#000000" d="M281.2 409.93h-1.23v-.57h1.19q.63 0 1.03-.24.41-.24.61-.68.21-.44.21-1.06 0-.62-.2-1.05-.2-.44-.6-.68-.39-.24-.98-.24h-1.28v-.57h1.32q.74 0 1.27.3.53.31.81.88.29.57.29 1.36 0 .79-.29 1.37-.28.57-.83.88-.54.3-1.32.3m-.94-5.09v5.09h-.64v-5.09Z"></path><rect width="4.02" height="5.09" x="-2.01" y="-2.54" fill="none" rx="0" ry="0" transform="translate(282.13 407.88)"></rect><path fill="#000000" d="M285.37 409.93v-5.09h3.11v.57h-2.46v1.67h2.29v.57h-2.29v1.71h2.49v.57Z"></path><rect width="3.14" height="5.09" x="-1.57" y="-2.54" fill="none" rx="0" ry="0" transform="translate(287.44 407.88)"></rect><path fill="#000000" d="M291.92 410.02q-.55 0-.96-.18-.4-.17-.63-.49-.23-.32-.26-.75h.67q.02.29.19.47.17.19.43.28.26.09.56.09.34 0 .62-.11.27-.11.44-.32.16-.2.16-.47 0-.25-.14-.4-.14-.16-.37-.26-.23-.1-.5-.17l-.62-.18q-.61-.17-.95-.5-.35-.32-.35-.83 0-.43.24-.75.23-.32.62-.5.4-.18.89-.18.51 0 .89.18.39.18.61.48.23.31.24.7h-.64q-.04-.38-.35-.58-.31-.2-.77-.2-.33 0-.57.1-.25.11-.39.3-.13.18-.13.42 0 .27.16.43.17.16.39.26.23.09.42.14l.51.14q.2.05.45.15.25.09.47.25.23.16.37.41.15.24.15.6 0 .41-.22.75-.22.33-.63.53-.41.19-1 .19"></path><rect width="3.7" height="5.25" x="-1.85" y="-2.63" fill="none" rx="0" ry="0" transform="translate(292.42 407.9)"></rect><path fill="#000000" d="M299.6 409.93v-2.08l-1.87-3.01h.75l1.01 1.64q.17.28.3.53.13.25.27.64h-.26q.14-.39.27-.65.14-.25.3-.52l1-1.64h.75l-1.87 3.01v2.08Z"></path><rect width="4.39" height="5.09" x="-2.19" y="-2.54" fill="none" rx="0" ry="0" transform="translate(300.43 407.88)"></rect><path fill="#000000" d="M305.45 410q-.65 0-1.16-.31-.52-.32-.81-.91-.29-.58-.29-1.39 0-.81.29-1.4.29-.58.81-.9.51-.32 1.16-.32.65 0 1.16.32.51.32.8.9.3.59.3 1.4 0 .81-.3 1.39-.29.59-.8.91-.51.31-1.16.31m0-.6q.45 0 .82-.23.37-.23.59-.68.21-.45.21-1.1 0-.66-.21-1.11-.22-.45-.59-.68-.37-.23-.82-.23-.46 0-.83.24-.37.23-.58.68-.22.45-.22 1.1 0 .65.22 1.1.21.45.58.68.37.23.83.23"></path><rect width="4.52" height="5.23" x="-2.26" y="-2.62" fill="none" rx="0" ry="0" transform="translate(305.95 407.88)"></rect><path fill="#000000" d="M311.44 410.02q-.6 0-1.05-.24-.45-.24-.7-.65-.25-.41-.25-.93v-3.36h.65v3.31q0 .36.17.65.16.29.46.45.3.16.72.16.41 0 .71-.16t.46-.45q.16-.29.16-.65v-3.31h.65v3.36q0 .52-.24.93-.25.41-.7.65-.44.24-1.04.24"></path><rect width="3.98" height="5.18" x="-1.99" y="-2.59" fill="none" rx="0" ry="0" transform="translate(311.93 407.93)"></rect><path fill="#000000" d="M315.36 409.93v-5.09h1.74q.6 0 .98.2.39.21.57.56.19.36.19.81 0 .46-.19.81-.18.34-.57.54-.38.2-.97.2h-1.39v-.58h1.36q.4 0 .64-.12.25-.12.36-.33.11-.22.11-.52 0-.3-.11-.53-.11-.22-.36-.34-.24-.13-.65-.13h-1.06v4.52Zm2.93 0-1.23-2.29h.73l1.25 2.29Z"></path><rect width="3.68" height="5.09" x="-1.84" y="-2.54" fill="none" rx="0" ry="0" transform="translate(317.7 407.88)"></rect><path fill="#000000" d="m322.81 409.93 1.85-5.09h.75l1.87 5.09h-.68l-1.08-3.02q-.1-.28-.23-.7-.13-.42-.32-1.07h.12q-.18.66-.32 1.09-.13.42-.22.68l-1.05 3.02Zm.93-1.42v-.57h2.61v.57Z"></path><rect width="4.47" height="5.09" x="-2.23" y="-2.54" fill="none" rx="0" ry="0" transform="translate(325.55 407.88)"></rect><path fill="#000000" d="M327.91 405.41v-.57h3.85v.57h-1.6v4.52h-.65v-4.52Z"></path><rect width="3.85" height="5.09" x="-1.93" y="-2.54" fill="none" rx="0" ry="0" transform="translate(330.33 407.88)"></rect><path fill="#000000" d="M333.14 405.41v-.57h3.84v.57h-1.59v4.52h-.65v-4.52Z"></path><rect width="3.84" height="5.09" x="-1.92" y="-2.54" fill="none" rx="0" ry="0" transform="translate(335.56 407.88)"></rect><path fill="#000000" d="M339.29 404.84v5.09h-.65v-5.09Z"></path><rect width=".65" height="5.09" x="-.33" y="-2.54" fill="none" rx="0" ry="0" transform="translate(339.46 407.88)"></rect><path fill="#000000" d="M340.95 405.41v-.57h3.85v.57h-1.6v4.52h-.65v-4.52Z"></path><rect width="3.85" height="5.09" x="-1.93" y="-2.54" fill="none" rx="0" ry="0" transform="translate(343.38 407.88)"></rect><path fill="#000000" d="M348.45 410.02q-.61 0-1.05-.24-.45-.24-.7-.65-.25-.41-.25-.93v-3.36h.65v3.31q0 .36.17.65.16.29.46.45.3.16.72.16.41 0 .71-.16t.46-.45q.16-.29.16-.65v-3.31h.65v3.36q0 .52-.24.93-.25.41-.7.65-.44.24-1.04.24"></path><rect width="3.98" height="5.18" x="-1.99" y="-2.59" fill="none" rx="0" ry="0" transform="translate(348.94 407.93)"></rect><path fill="#000000" d="M353.96 409.93h-1.23v-.57h1.19q.62 0 1.03-.24.41-.24.61-.68.2-.44.2-1.06 0-.62-.2-1.05-.2-.44-.59-.68-.4-.24-.99-.24h-1.28v-.57h1.32q.75 0 1.28.3.53.31.81.88.28.57.28 1.36 0 .79-.28 1.37-.29.57-.83.88-.55.3-1.32.3m-.94-5.09v5.09h-.65v-5.09Z"></path><rect width="4.02" height="5.09" x="-2.01" y="-2.54" fill="none" rx="0" ry="0" transform="translate(354.88 407.88)"></rect><path fill="#000000" d="M358.13 409.93v-5.09h3.1v.57h-2.45v1.67h2.28v.57h-2.28v1.71h2.48v.57Z"></path><rect width="3.13" height="5.09" x="-1.56" y="-2.54" fill="none" rx="0" ry="0" transform="translate(360.2 407.88)"></rect><path fill="#000000" d="M250.819 99.828c-1.146 0-2.322.072-3.536.237a1.96 1.96 0 0 0-1.647 2.119l4.945 35.338h-14.96a5.62 5.62 0 0 0-3.77 1.414c-1.086.96-1.885 2.506-1.885 4.24 0 1.734.8 3.159 1.885 4.124 1.09.961 2.412 1.53 3.77 1.53h16.49c.25 1.81.54 3.66.826 5.771l1.53 11.191v15.078c0 .988.897 1.885 1.885 1.885h5.654v13.193c0 .987.897 1.884 1.885 1.884h13.193v11.309h-7.539c-5.714 0-8.922 1.534-10.366 3.886-1.44 2.356-2.827 5.043-2.827 5.537 0 .988.897 1.885 1.885 1.885h45.233a1.96 1.96 0 0 0 1.884-1.885c0-.618-1.58-3.147-3.06-5.417-1.486-2.272-4.607-3.867-10.133-4.006h-7.538v-11.309h13.192a1.96 1.96 0 0 0 1.885-1.884v-13.193h2.356l9.073 32.51a1.885 1.885 0 0 0 1.764 1.414h22.616a5.594 5.594 0 0 0 5.538-5.654c0-1.9-.875-3.562-2.002-4.474a5.473 5.473 0 0 0-3.54-1.18h-15.548l-6.476-22.616h8.832a1.96 1.96 0 0 0 1.884-1.885s.053-4.165-1.764-8.364c-1.658-3.819-5.25-7.788-11.428-8.481V152.6c0-3.743-1.225-7.509-3.77-10.366s-6.43-4.712-11.308-4.712h-28.033c2.917-3.027 4.557-6.823 4.003-10.837l-1.885-14.252c-.527-3.86-2.902-7.011-6.242-9.19-3.336-2.179-7.697-3.377-12.363-3.415h-.355zm-15.202 41.463h15.548l.238 2.002v.117c0 .037-.011.037 0 .12a.377.377 0 0 1 0 .117c.022.155.079.332.117.588l.117.826h-16.02c-.419 0-.943-.28-1.297-.588a1.47 1.47 0 0 1-.588-1.297c0-.709.237-1.1.588-1.413a2.058 2.058 0 0 1 1.304-.472m27.211 0h33.1c3.95 0 6.634 1.342 8.48 3.415s2.828 4.972 2.828 7.894v11.19h-3.77v-7.421c0-2.318-.019-5.149-1.647-7.539-1.632-2.39-4.78-3.77-9.66-3.77h-29.214l-.47-3.531c.078-.05.157-.068.237-.113.049-.038.067-.09.116-.117zm.588 7.54h28.742c4.207 0 5.79.934 6.597 2.121.81 1.184.942 3.193.942 5.417v7.539h-34.158zm6.126 33.924h22.616v7.539H269.55zm36.4 0h3.65l7.188 24.972a1.885 1.885 0 0 0 1.764 1.414h16.962c.272 0 .848.094 1.18.361.328.264.588.619.588 1.53 0 .913-.26 1.147-.588 1.414a2.394 2.394 0 0 1-1.18.472H314.31l-8.36-30.156z"></path></svg></svg>